<svg preserveAspectRatio="none" overflow="visible" style="display: block;" width="24.0003" height="24.0003" viewBox="0 0 24.0003 24.0003" fill="none" xmlns="http://www.w3.org/2000/svg">
<g id="&#226;&#134;&#170; icon">
<g id="vector">
<path d="M5.97534 12.364C5.55418 12.364 5.20493 12.0148 5.20493 11.5936V8.78929C5.20493 8.36813 5.55418 8.01888 5.97534 8.01888C6.3965 8.01888 6.74576 8.36813 6.74576 8.78929V11.5936C6.74576 12.0148 6.3965 12.364 5.97534 12.364Z" fill="#DB3300"/>
<path d="M18.0143 12.364C17.5932 12.364 17.2439 12.0148 17.2439 11.5936V8.78929C17.2439 8.36813 17.5932 8.01888 18.0143 8.01888C18.4355 8.01888 18.7848 8.36813 18.7848 8.78929V11.5936C18.7848 12.0148 18.4355 12.364 18.0143 12.364Z" fill="#DB3300"/>
<path d="M14.5629 12.1489C13.5254 12.1489 12.868 10.8444 12.868 9.94042C12.868 8.67694 14.1109 8.67694 14.5834 8.67694C15.0559 8.67694 16.2578 8.67694 16.2578 9.94042C16.2578 10.8444 15.6004 12.1489 14.5629 12.1489ZM14.2136 10.0226C14.2547 10.3719 14.4807 10.7622 14.604 10.8238C14.6553 10.7622 14.8813 10.3513 14.9224 10.0226C14.6861 10.0021 14.4396 10.0021 14.2136 10.0226Z" fill="#DB3300"/>
<path d="M17.6138 21.9897H6.37596C6.0678 21.9897 5.7699 21.8665 5.54391 21.6507C5.31792 21.435 5.20493 21.1269 5.20493 20.8187V12.3647H3.17103C2.86287 12.3647 2.56497 12.2414 2.33898 12.0257C2.11299 11.81 2 11.5121 2 11.1936V8.76939C2 7.04366 2.64715 5.38983 3.82845 4.12635C5.00976 2.87314 6.60195 2.11299 8.32768 2H8.34823C8.34823 2 8.43041 2 8.46122 2H15.5593C15.5593 2 15.5593 2 15.5696 2C15.6004 2 15.6415 2 15.6518 2C17.3775 2.11299 18.98 2.87314 20.1613 4.13662C21.3426 5.4001 21.9897 7.04366 21.9897 8.77966V11.2039C21.9897 11.5121 21.8665 11.81 21.6507 12.036C21.435 12.2517 21.1269 12.3749 20.8187 12.3749H18.7848V20.829C18.7848 21.1371 18.6615 21.435 18.4458 21.661C18.2301 21.887 17.9219 22 17.6138 22V21.9897ZM6.74576 20.4489H17.244L17.2439 11.5936C17.2439 11.1724 17.5932 10.8238 18.0144 10.8238H20.4592V8.76939C20.4592 7.434 19.9558 6.16025 19.0416 5.18439C18.2096 4.2907 17.1002 3.72573 15.8983 3.57165C15.7237 4.4037 15.2922 5.16384 14.6554 5.72881C13.1967 7.03339 10.8238 7.03339 9.3549 5.72881C8.71803 5.15357 8.27632 4.4037 8.11197 3.57165C6.91012 3.72573 5.80072 4.30098 4.9584 5.19466C4.04417 6.17052 3.54083 7.44427 3.54083 8.77966V10.8341H5.98562C6.40678 10.8341 6.75603 11.1834 6.75603 11.6045V20.4592L6.74576 20.4489ZM9.68362 3.54083C9.81715 3.94145 10.0534 4.30098 10.3719 4.57833C11.2655 5.37956 12.7242 5.37956 13.6179 4.57833C13.9363 4.2907 14.1726 3.94145 14.3061 3.54083H9.68362Z" fill="#DB3300"/>
</g>
</g>
</svg>
